<svg id="Calque_1" data-name="Calque 1" xmlns="http://www.w3.org/2000/svg" viewBox="0 0 269.58844 283.46457">
  <defs>
    <style>
      .cls-1 {
        fill: #fff;
      }
    </style>
  </defs>
  <g>
    <path class="cls-1" d="M239.47126,113.76938c-7.15245,1.57454-11.28975-5.52761-11.28975-5.52761a10.41047,10.41047,0,0,1-9.74874,6.98488c-7.31992.0502-13.78555-10.201-15.29312-16.1474a3.89783,3.89783,0,0,1,1.37354-4.10387l.56946-.43553c2.36186-1.82573,6.21443-.68672,7.73867,2.21107a35.02822,35.02822,0,0,0,4.20437,6.248s6.16413-18.00668,19.07872-1.42385q-3.24114-12.68839-5.7789-26.58287c-17.01836,1.40708-30.30141,7.01842-38.37511,15.34342A2.952,2.952,0,0,1,186.875,88.158v-.1005a5.11523,5.11523,0,0,1,1.35677-3.24958c8.81073-9.43038,20.7873-18.19091,39.94976-22.345-2.1441-10.2178-6.2814-15.04182-19.78221-15.99661L184.731,44.84146a33.49383,33.49383,0,0,0,3.11555,6.54946,5.13383,5.13383,0,0,1-2.94809,7.67161l-.804.21776A5.03227,5.03227,0,0,1,179.22,58.10774c-3.09878-3.01505-6.58289-8.81062-7.26961-14.13723l-14.37187-.98832c-.63652.70349-1.30648,1.37354-1.97653,2.01007a3.458,3.458,0,0,1-2.1943.95478h-.067a2.00788,2.00788,0,0,1-1.5913-3.36684L20.56033,33.602A12.53847,12.53847,0,0,0,7.16,45.57848v.01677c.469,1.206.95478,2.41206,1.44051,3.60137.46906,1.18922.938,2.37853,1.42384,3.55108.95468,2.345,1.8927,4.65656,2.84749,6.93459.46906,1.13911.95478,2.27813,1.42384,3.40037q4.24623,10.10055,8.4254,19.16246c.78732,1.70857,1.55777,3.40028,2.34509,5.05865.70349,1.49071,1.407,2.948,2.0938,4.3886.36846.75369.72026,1.49071,1.08872,2.22773.90459,1.876,1.82584,3.70187,2.73032,5.49418.88782,1.742,1.75887,3.43381,2.64659,5.10885q.67845,1.30658,1.35678,2.56286t1.35678,2.51256c.402.72025.78732,1.44051,1.18931,2.16076.38523.70349.78722,1.40708,1.17255,2.11057.78722,1.407,1.57454,2.76375,2.36176,4.10386,1.55778,2.68,3.13232,5.24289,4.67333,7.68838.43552.68682.871,1.37354,1.30658,2.0436.87105,1.32324,1.72523,2.61306,2.57952,3.86934.43553.61975.871,1.23951,1.28981,1.85927.88782,1.273,1.77554,2.51256,2.64659,3.6851.83752,1.12225,1.675,2.22773,2.51256,3.29978q3.24115,4.12064,6.39867,7.50425c.82075.88772,1.6415,1.742,2.46226,2.546.43552.41876.85428.83752,1.28981,1.23951.402.38533.82075.77056,1.23951,1.13912.469.45219.938.85418,1.39031,1.25628.77046.65319,1.541,1.27294,2.2948,1.85927.85429.67,1.69181,1.28971,2.52933,1.85927.36846.2513.75368.50249,1.12224.737q.603.40194,1.206.75379c.402.25119.80409.48572,1.18932.70349.36846.201.737.402,1.10548.58622a32.41646,32.41646,0,0,0,4.80735,2.02683c.28483.1005.5528.18423.82086.2513.51926.16746,1.02175.3015,1.541.41876h.01676c.48573.11727.97145.21776,1.45728.28473a9.22891,9.22891,0,0,0,1.18921.16746,4.13934,4.13934,0,0,0,.63653.08384c.43552.05019.871.067,1.30658.08373.28472.01676.55279.01676.82075.01676.48572,0,.98832-.01676,1.474-.0503.41876-.03353.82076-.067,1.22275-.11726.21776-.01677.43553-.0502.65329-.08373a22.3348,22.3348,0,0,0,3.66834-.85429c.268-.08373.536-.16746.804-.268a20.55076,20.55076,0,0,0,2.02683-.82075,7.5958,7.5958,0,0,0,.75379-.3518c.36846-.16746.75379-.36856,1.12225-.56956a26.57022,26.57022,0,0,0,2.68-1.62474q.70359-.47739,1.40708-1.00508c.48572-.35169.95478-.72026,1.42374-1.10548a6.00652,6.00652,0,0,0,.61986-.51926c.73692-.603,1.47394-1.27305,2.211-1.9933.46906-.4523.95479-.92125,1.42385-1.39031.46895-.48573.95478-.98822,1.407-1.50748l-24.69007,7.48738c-3.31654.78732-5.84587-2.52933-4.25456-5.9296L96.5401,127.92348l4.60636-9.9665,9.39695-20.35177v-.01677l4.50586-9.74874V87.823l14.85759-32.11058,1.44062-3.13232a7.39373,7.39373,0,0,1,2.93132-2.69679c8.71012-4.30486,24.958,10.78726,36.31484,33.70179,11.35672,22.9313,13.51758,45.00831,4.80736,49.32994a6.51215,6.51215,0,0,1-1.57454.55279c-.01677,0-.01677.01666-.03354,0l-3.65157,1.12225h-.01677a35.45491,35.45491,0,0,1-3.55107-.65329l1.70857.67006.77055.30149,100.53581,38.72691C258.215,162.446,247.62869,141.039,239.47126,113.76938ZM86.59037,70.26855,41.0628,69.029a4.74524,4.74524,0,0,1-4.25456-2.93131l-6.047-14.5561a4.74443,4.74443,0,0,1,4.67342-6.54936l47.03514,2.78052a4.73383,4.73383,0,0,1,4.1876,3.18261l4.53929,13.015A4.732,4.732,0,0,1,86.59037,70.26855Zm123.38347,60.51919-.08384.38532a2.50109,2.50109,0,0,1-2.96475,1.92624l-12.59633-2.68a2.5226,2.5226,0,0,1-1.92633-2.96486l.08383-.402a2.503,2.503,0,0,1,2.96475-1.90957L208.0475,127.823A2.50115,2.50115,0,0,1,209.97384,130.78774Z" transform="translate(0 0)"/>
    <path class="cls-1" d="M153.84325,129.04573c-.36857-.1508-.75379-.26806-1.12225-.402-.75379-.2513-1.52435-.4523-2.27813-.63652a24.984,24.984,0,0,0-10.737-.134,21.67329,21.67329,0,0,0-2.68013.68683c-.03343.01666-.0502.01666-.08373.03343-11.95981-8.74366-20.938-19.48072-26.39864-30.98823v-.01677l4.50586-9.74874c.23453.58632.48583,1.17254.737,1.7421.2513.58623.51926,1.15578.78732,1.72524.402.85429.83752,1.70857,1.28972,2.56286.45229.83752.92135,1.675,1.39031,2.49579q1.13068,1.93473,2.41206,3.81914c.25129.38523.51926.77045.77055,1.139.36846.536.75379,1.07194,1.139,1.5912.38522.536.78722,1.05529,1.17255,1.57454.402.51926.82075,1.03862,1.22274,1.54111.51926.63653,1.03852,1.273,1.57454,1.89281a.05852.05852,0,0,0,.01677.03343c.804.92135,1.62474,1.82584,2.44549,2.71355,0,.01677.01677.03354.0503.06707.82076.88772,1.675,1.742,2.52933,2.59629.43553.43553.87105.85429,1.32324,1.28982a93.0532,93.0532,0,0,0,11.30652,9.19595c.92125.63652,1.85927,1.25628,2.79729,1.85927a.96436.96436,0,0,1,.11726.067c.92136.58633,1.85937,1.15578,2.79739,1.69181.03343.01676.08373.0503.11727.06706.77045.43543,1.52424.85419,2.29479,1.25628C153.50822,128.8615,153.67568,128.94523,153.84325,129.04573Z" transform="translate(0 0)"/>
    <path class="cls-1" d="M122.28545,140.72071c-.41876.63652-.85428,1.25628-1.273,1.85937s-.83752,1.206-1.273,1.77554c-1.02185,1.42374-2.0436,2.747-3.06535,4.00326-12.3116-5.74537-16.68343-14.3048-20.134-20.4354l4.60636-9.9665C105.45133,128.77767,112.90527,135.69559,122.28545,140.72071Z" transform="translate(0 0)"/>
  </g>
  <path class="cls-1" d="M25.65242,186.75087h.1508l30.15071-1.54111L6.97579,54.6907,4.19516,207.55483a1.08616,1.08616,0,0,0,.83752,1.139,1.10011,1.10011,0,0,0,1.32335-.51926l9.732-16.0469A11.13446,11.13446,0,0,1,25.65242,186.75087Z" transform="translate(0 0)"/>
  <path class="cls-1" d="M267.59514,202.16115a3.0115,3.0115,0,0,0,.23453-2.64649l-7.85594-20.6365-170.03329-11.608h-.05019a.46351.46351,0,0,1-.1508-.01677c-.51926-.01677-1.03852-.0503-1.57454-.11727a1.02991,1.02991,0,0,1-.21777-.01676c-.56945-.0502-1.139-.134-1.70847-.23453-.41876-.067-.82085-.1507-1.23961-.2512-.41876-.08373-.82076-.18423-1.23952-.30149a20.31551,20.31551,0,0,1-2.49579-.77056c-.38522-.134-.77055-.28472-1.17255-.43552-.871-.335-1.742-.72026-2.62982-1.15578-.35169-.16747-.70349-.3517-1.05528-.536-.1507-.067-.3015-.1507-.4522-.23443-.31826-.18433-.65329-.36856-.97155-.55279-.41876-.23453-.85428-.48572-1.273-.75379s-.85429-.536-1.273-.82075c-.85418-.536-1.6917-1.139-2.546-1.7923-.43553-.31827-.85429-.63653-1.28981-.98822-.82076-.63652-1.64151-1.30658-2.46226-2.0436-.46906-.402-.92136-.804-1.39031-1.23952-.43553-.402-.87106-.804-1.28982-1.22274-.43552-.4021-.871-.83752-1.30647-1.27305-.335-.31826-.65329-.65329-1.00509-1.00508-.201-.201-.38523-.402-.56946-.61976l-.16756-.16746c-.28473-.3015-.56946-.603-.85429-.92125-1.75877-1.876-3.50077-3.91964-5.25954-6.11394-.4523-.55279-.88782-1.10548-1.32335-1.675a183.423,183.423,0,0,1-10.82069-15.62815c-.87105-1.407-1.75887-2.83082-2.64659-4.32153-.11727-.21776-.2513-.43552-.38523-.65329-.50259-.85428-1.00508-1.70857-1.52434-2.59629-.50249-.87105-1.005-1.75887-1.52424-2.66335-.56956-1.02175-1.139-2.0435-1.72534-3.082-.56946-1.03862-1.139-2.0938-1.72524-3.16585-.45229-.85429-.92125-1.72534-1.39031-2.61306-.56956-1.07205-1.12225-2.1441-1.69181-3.23281-.55279-1.08882-1.12225-2.1943-1.6918-3.31665L60.711,188.32541l14.97486,39.88268a12.40385,12.40385,0,0,0,5.846.603L265.36741,203.652A3.06643,3.06643,0,0,0,267.59514,202.16115Z" transform="translate(0 0)"/>
  <path class="cls-1" d="M71.01252,225.29354l-13.80231-36.7839-31.44053,1.5913a7.59564,7.59564,0,0,1,5.22612,2.144L68.91872,227.94a15.5375,15.5375,0,0,0,4.1373,2.79739Z" transform="translate(0 0)"/>
  <g>
    <g>
      <path class="cls-1" d="M35.9561,266.36411H6.59056q.95939,5.29748,4.35936,7.73725a12.4359,12.4359,0,0,0,7.40354,2.44058,12.83528,12.83528,0,0,0,10.34468-5.13144l5.29748,4.00439a19.16089,19.16089,0,0,1-15.97586,7.716,17.29752,17.29752,0,0,1-12.84742-5.25413A17.877,17.877,0,0,1,0,264.81994a17.51391,17.51391,0,0,1,5.2345-12.65931,17.19282,17.19282,0,0,1,12.78526-5.36045,17.11863,17.11863,0,0,1,12.72229,5.44387Q36.0383,257.68631,35.9561,266.36411ZM7.34138,260.56527H28.36444q-3.50385-7.09112-10.34468-7.09111Q10.552,253.47416,7.34138,260.56527Z" transform="translate(0 0)"/>
      <path class="cls-1" d="M40.753,247.75874H48.357l9.84331,19.89764,9.56523-19.89764H75.416l-17.3311,35.70583Z" transform="translate(0 0)"/>
      <path class="cls-1" d="M114.37543,266.36411H85.00989q.95938,5.29748,4.35936,7.73725a12.43593,12.43593,0,0,0,7.40354,2.44058,12.83528,12.83528,0,0,0,10.34468-5.13144l5.29748,4.00439a19.16088,19.16088,0,0,1-15.97586,7.716,17.29752,17.29752,0,0,1-12.84742-5.25413,17.877,17.877,0,0,1-5.17234-13.0568,17.51391,17.51391,0,0,1,5.2345-12.65931,17.756,17.756,0,0,1,25.50755.08342Q114.45763,257.68631,114.37543,266.36411Zm-28.61471-5.79884h21.023q-3.50384-7.09112-10.34468-7.09111Q88.97136,253.47416,85.76072,260.56527Z" transform="translate(0 0)"/>
      <path class="cls-1" d="M121.38312,282.1723V247.75874h7.09029v5.71542a28.91148,28.91148,0,0,1,5.67289-5.06765,10.42522,10.42522,0,0,1,5.67288-1.60633,11.31253,11.31253,0,0,1,7.99,3.08671,9.78372,9.78372,0,0,1,3.31736,7.42481v24.8606h-7.2596V259.43822a6.31064,6.31064,0,0,0-1.81653-4.62926,6.19939,6.19939,0,0,0-4.60636-1.83535,7.998,7.998,0,0,0-6.2585,3.06546,11.00411,11.00411,0,0,0-2.62706,7.40354V282.1723Z" transform="translate(0 0)"/>
      <path class="cls-1" d="M162.47066,237.74776h7.258v10.011h7.17453v6.63309h-7.17453V282.1723h-7.258V254.39183h-5.71542V247.677h5.71542Z" transform="translate(0 0)"/>
      <path class="cls-1" d="M182.0346,247.75874h7.258v19.39709q0,8.96817,7.88446,8.96735a6.90513,6.90513,0,0,0,5.54693-2.39805,9.802,9.802,0,0,0,2.0431-6.5693V247.75874h7.17453v20.565a14.32575,14.32575,0,0,1-4.21214,10.63585,16.0211,16.0211,0,0,1-21.56449,0,14.79574,14.79574,0,0,1-4.13035-10.88612Z" transform="translate(0 0)"/>
      <path class="cls-1" d="M220.03379,282.1723V247.75874h7.17453v5.2983a21.07488,21.07488,0,0,1,4.85991-4.75522,9.55154,9.55154,0,0,1,5.31792-1.50164,9.89108,9.89108,0,0,1,6.15217,1.711,12.86692,12.86692,0,0,1,3.77538,5.46351,22.319,22.319,0,0,1,5.25577-5.46351,10.26183,10.26183,0,0,1,5.8839-1.711,9.52579,9.52579,0,0,1,7.07639,3.06545,10.10064,10.10064,0,0,1,2.97385,7.27922V282.1723h-7.258V259.02273q0-5.7146-5.64835-5.71542a6.68155,6.68155,0,0,0-5.46187,2.91987,11.5135,11.5135,0,0,0-2.23775,7.21543V282.1723h-7.258v-22.191q0-6.75741-5.54693-6.75741a7.02651,7.02651,0,0,0-5.5911,2.753,10.26389,10.26389,0,0,0-2.29337,6.7983V282.1723Z" transform="translate(0 0)"/>
    </g>
    <g>
      <path class="cls-1" d="M35.9561,266.36411H6.59056q.95939,5.29748,4.35936,7.73725a12.4359,12.4359,0,0,0,7.40354,2.44058,12.83528,12.83528,0,0,0,10.34468-5.13144l5.29748,4.00439a19.16089,19.16089,0,0,1-15.97586,7.716,17.29752,17.29752,0,0,1-12.84742-5.25413A17.877,17.877,0,0,1,0,264.81994a17.51391,17.51391,0,0,1,5.2345-12.65931,17.19282,17.19282,0,0,1,12.78526-5.36045,17.11863,17.11863,0,0,1,12.72229,5.44387Q36.0383,257.68631,35.9561,266.36411ZM7.34138,260.56527H28.36444q-3.50385-7.09112-10.34468-7.09111Q10.552,253.47416,7.34138,260.56527Z" transform="translate(0 0)"/>
      <path class="cls-1" d="M40.753,247.75874H48.357l9.84331,19.89764,9.56523-19.89764H75.416l-17.3311,35.70583Z" transform="translate(0 0)"/>
      <path class="cls-1" d="M114.37543,266.36411H85.00989q.95938,5.29748,4.35936,7.73725a12.43593,12.43593,0,0,0,7.40354,2.44058,12.83528,12.83528,0,0,0,10.34468-5.13144l5.29748,4.00439a19.16088,19.16088,0,0,1-15.97586,7.716,17.29752,17.29752,0,0,1-12.84742-5.25413,17.877,17.877,0,0,1-5.17234-13.0568,17.51391,17.51391,0,0,1,5.2345-12.65931,17.756,17.756,0,0,1,25.50755.08342Q114.45763,257.68631,114.37543,266.36411Zm-28.61471-5.79884h21.023q-3.50384-7.09112-10.34468-7.09111Q88.97136,253.47416,85.76072,260.56527Z" transform="translate(0 0)"/>
      <path class="cls-1" d="M121.38312,282.1723V247.75874h7.09029v5.71542a28.91148,28.91148,0,0,1,5.67289-5.06765,10.42522,10.42522,0,0,1,5.67288-1.60633,11.31253,11.31253,0,0,1,7.99,3.08671,9.78372,9.78372,0,0,1,3.31736,7.42481v24.8606h-7.2596V259.43822a6.31064,6.31064,0,0,0-1.81653-4.62926,6.19939,6.19939,0,0,0-4.60636-1.83535,7.998,7.998,0,0,0-6.2585,3.06546,11.00411,11.00411,0,0,0-2.62706,7.40354V282.1723Z" transform="translate(0 0)"/>
      <path class="cls-1" d="M162.47066,237.74776h7.258v10.011h7.17453v6.63309h-7.17453V282.1723h-7.258V254.39183h-5.71542V247.677h5.71542Z" transform="translate(0 0)"/>
      <path class="cls-1" d="M182.0346,247.75874h7.258v19.39709q0,8.96817,7.88446,8.96735a6.90513,6.90513,0,0,0,5.54693-2.39805,9.802,9.802,0,0,0,2.0431-6.5693V247.75874h7.17453v20.565a14.32575,14.32575,0,0,1-4.21214,10.63585,16.0211,16.0211,0,0,1-21.56449,0,14.79574,14.79574,0,0,1-4.13035-10.88612Z" transform="translate(0 0)"/>
      <path class="cls-1" d="M220.03379,282.1723V247.75874h7.17453v5.2983a21.07488,21.07488,0,0,1,4.85991-4.75522,9.55154,9.55154,0,0,1,5.31792-1.50164,9.89108,9.89108,0,0,1,6.15217,1.711,12.86692,12.86692,0,0,1,3.77538,5.46351,22.319,22.319,0,0,1,5.25577-5.46351,10.26183,10.26183,0,0,1,5.8839-1.711,9.52579,9.52579,0,0,1,7.07639,3.06545,10.10064,10.10064,0,0,1,2.97385,7.27922V282.1723h-7.258V259.02273q0-5.7146-5.64835-5.71542a6.68155,6.68155,0,0,0-5.46187,2.91987,11.5135,11.5135,0,0,0-2.23775,7.21543V282.1723h-7.258v-22.191q0-6.75741-5.54693-6.75741a7.02651,7.02651,0,0,0-5.5911,2.753,10.26389,10.26389,0,0,0-2.29337,6.7983V282.1723Z" transform="translate(0 0)"/>
    </g>
  </g>
  <path class="cls-1" d="M171.64892,124.43937c-4.82412,2.3953-16.18094-10.72029-25.37689-29.27966-9.196-18.5427-12.73026-35.52762-7.90613-37.92292s16.1976,10.72019,25.39355,29.2629C172.93863,105.05915,176.48971,122.04408,171.64892,124.43937Z" transform="translate(0 0)"/>
  <path class="cls-1" d="M251.73256,66.33225c-.28483,1.34-.51926,2.73032-.68682,4.0871a5.09726,5.09726,0,0,1-5.37681,4.42213,119.33492,119.33492,0,0,0-11.95981-.08384c-.55279-3.03182-1.07205-6.11383-1.55777-9.21272-.201-1.28971-.43553-2.52922-.68683-3.71854a115.01657,115.01657,0,0,1,14.97486-1.6918A5.11526,5.11526,0,0,1,251.73256,66.33225Z" transform="translate(0 0)"/>
  <path class="cls-1" d="M234.01061,41.55845l-8.995,5.19258a3.747,3.747,0,0,1-1.90957.50249,16.95038,16.95038,0,0,0-3.03182-1.65827,1.405,1.405,0,0,1-.134-.201l-.30149-.51926a3.73775,3.73775,0,0,1,1.35677-5.07542l8.995-5.19258a3.73373,3.73373,0,0,1,5.07542,1.35678l.30149.51926A3.71893,3.71893,0,0,1,234.01061,41.55845Z" transform="translate(0 0)"/>
  <path class="cls-1" d="M209.92354,30.36909c-5.59458,2.5964-11.49075-1.32324-11.49075-1.32324,2.73032,7.11892,1.876,11.139-.402,13.35012l-26.13068-1.79231a8.37422,8.37422,0,0,1,1.77554-4.32163c5.05865-6.26463,13.18255-4.15406,13.18255-4.15406s-4.2881-7.65495,2.36186-12.73037c7.42042-5.6281,15.69512-1.49081,15.69512-1.49081a20.08373,20.08373,0,0,0-2.57953-9.7654A5.098,5.098,0,0,1,205.60191.70421L207.8465.15142a5.11426,5.11426,0,0,1,6.04687,3.26634C216.89176,11.75943,220.22507,25.59527,209.92354,30.36909Z" transform="translate(0 0)"/>
  <path class="cls-1" d="M264.58009,111.34055l-1.52424,1.28981c-2.22784,1.85927-6.06364.938-7.68848-1.876a22.4229,22.4229,0,0,0-6.80066-7.28649s-.43552,6.16414-5.94637,9.14576q-2.46241-8.26643-4.60636-17.23623a7.04332,7.04332,0,0,1,2.71356-2.44549c8.87769-4.58959,18.6432,5.51085,24.07031,12.29474C266.42259,107.25345,266.33886,109.88327,264.58009,111.34055Z" transform="translate(0 0)"/>
  <path class="cls-1" d="M171.79962,5.22683c-.603,16.48234-5.41034,27.03507-11.45721,34.58951l-5.89618-.41876c5.49418-7.48738,8.40874-19.11216,7.37022-33.50079a3.43732,3.43732,0,0,1,2.948-3.68511c.92136-.13393,1.85938-.30149,2.78063-.51926A3.47562,3.47562,0,0,1,171.79962,5.22683Z" transform="translate(0 0)"/>
  <path class="cls-1" d="M141.11288,26.34906l-.65318.268a4.576,4.576,0,0,1-5.99667-2.39529l-5.37692-12.613a4.57052,4.57052,0,0,1,2.41206-5.9799l.65329-.28483a4.58376,4.58376,0,0,1,5.99667,2.41206l5.37681,12.59633A4.58359,4.58359,0,0,1,141.11288,26.34906Z" transform="translate(0 0)"/>
</svg>
